<svg xmlns="http://www.w3.org/2000/svg" width="1280" height="420" viewBox="0 0 1280 420" fill="none" role="img" aria-labelledby="title desc">
  <title id="title">Arc Library</title>
  <desc id="desc">Free, open source React components with calm motion.</desc>
  <defs>
    <clipPath id="panel"><rect x="1" y="1" width="1278" height="418" rx="28"/></clipPath>
  </defs>
  <rect x="1" y="1" width="1278" height="418" rx="28" fill="#FAFAFA"/>
  <g clip-path="url(#panel)" stroke-linecap="round" fill="none">
    <path d="M870 420A210 210 0 0 1 1290 420" stroke="#111111" stroke-opacity=".05" stroke-width="2"/>
    <path d="M930 420A150 150 0 0 1 1230 420" stroke="#111111" stroke-opacity=".07" stroke-width="2"/>
    <path d="M990 420A90 90 0 0 1 1170 420" stroke="#111111" stroke-opacity=".10" stroke-width="2"/>
    <path d="M810 420A270 270 0 0 1 1350 420" stroke="#111111" stroke-opacity=".035" stroke-width="2"/>
    <path d="M750 420A330 330 0 0 1 1410 420" stroke="#111111" stroke-opacity=".025" stroke-width="2"/>
    <circle cx="1080" cy="270" r="7" fill="#7747FF"/>
    <circle cx="1080" cy="270" r="16" fill="#7747FF" fill-opacity=".12"/>
  </g>
  <rect x="1" y="1" width="1278" height="418" rx="28" stroke="#EAEAEA" stroke-width="2"/>
  <g transform="translate(96 138) scale(1.75)" stroke="#111111" stroke-width="5.5" stroke-linecap="round" stroke-linejoin="round" fill="none">
    <path d="M9 48V29C9 15 19 7 32 7s23 8 23 22v19"/>
    <path d="M20 48V31c0-8 5-13 12-13s12 5 12 13v17"/>
    <path d="M32 38v10"/>
  </g>
  <g font-family="Inter, 'Geist', -apple-system, BlinkMacSystemFont, 'Segoe UI', Helvetica, Arial, sans-serif">
    <text x="252" y="206" fill="#111111" font-size="72" font-weight="600" letter-spacing="-2.4">Arc Library</text>
    <text x="254" y="254" fill="#6B6B6B" font-size="26" letter-spacing="-.3">Free, open source React components with calm motion.</text>
    <g font-size="16" font-weight="500" fill="#4A4A4A" text-anchor="middle">
      <rect x="254" y="292" width="150" height="34" rx="17" fill="#FFFFFF" stroke="#E4E4E4" stroke-width="1.5"/>
      <text x="329" y="314">shadcn registry</text>
      <rect x="416" y="292" width="100" height="34" rx="17" fill="#FFFFFF" stroke="#E4E4E4" stroke-width="1.5"/>
      <text x="466" y="314">React 19</text>
      <rect x="528" y="292" width="90" height="34" rx="17" fill="#FFFFFF" stroke="#E4E4E4" stroke-width="1.5"/>
      <text x="573" y="314">Motion</text>
      <rect x="630" y="292" width="72" height="34" rx="17" fill="#FFFFFF" stroke="#E4E4E4" stroke-width="1.5"/>
      <text x="666" y="314">MIT</text>
    </g>
  </g>
</svg>
